<svg id="_레이어_1" data-name="레이어_1" xmlns="http://www.w3.org/2000/svg" version="1.1" viewBox="0 0 105 17">
                <!-- Generator: Adobe Illustrator 29.2.1, SVG Export Plug-In . SVG Version: 2.1.0 Build 116)  -->
                <path class="st0" d="M10.21,15.81L6.21.77l-.17-.57h-1.18l-.18.57L.66,15.81h0s-.27,1-.27,1h1.62l.23-.9.82-3.08h4.79l.9,3.39h0l.16.59h1.57s-.25-.97-.25-.97c0,0,0-.02,0-.03ZM3.46,11.29l1.99-7.46,1.99,7.46h-3.98Z"></path>
                <polygon class="st0" points="65.95 .2 65.2 .2 60.16 .2 59.5 .2 58.74 .2 58.74 .96 58.74 1.21 58.74 15.37 58.74 16.03 58.74 16.78 59.5 16.78 59.91 16.78 64.7 16.78 65.95 16.78 66.7 16.78 66.7 15.24 65.95 15.24 64.7 15.24 60.28 15.24 60.28 8.68 64.15 8.68 64.45 8.68 65.21 8.68 65.21 7.14 64.45 7.14 64.15 7.14 60.28 7.14 60.28 1.74 65.2 1.74 65.95 1.74 66.7 1.74 66.7 .2 65.95 .2"></polygon>
                <polygon class="st0" points="77.6 .2 77.6 .96 77.6 1.57 77.6 12.73 71.68 .67 71.68 .67 71.44 .2 70.18 .2 70.18 .91 70.18 1.28 70.18 15.11 70.18 16.03 70.18 16.78 71.72 16.78 71.72 16.03 71.72 15.11 71.72 4.23 77.65 16.29 77.65 16.29 77.89 16.78 79.12 16.78 79.12 16.05 79.12 15.79 79.12 1.57 79.12 .96 79.12 .2 77.6 .2"></polygon>
                <polygon class="st0" points="92.05 .18 83.12 .18 82.33 .18 82.33 1.72 83.12 1.72 86.81 1.72 86.81 14.52 86.81 16 86.81 16.78 88.35 16.78 88.35 16 88.35 14.52 88.35 1.72 92.05 1.72 92.81 1.72 92.81 .18 92.05 .18"></polygon>
                <path class="st0" d="M24.17.2l-.25.51s0,0,0,.01l-4.36,8.77L15.49,1.28l-.54-1.08h-1.23v16.58h1.52V4.23l3.76,7.54h1.13l.21-.42,3.52-7.12v12.56h1.54V.2h-1.23Z"></path>
                <path class="st0" d="M53.23.22l-.25.51s0,0,0,.01l-4.36,8.77-4.06-8.21-.54-1.08h-1.23v16.58h1.52V4.25l3.76,7.54h1.13l.21-.42,3.52-7.12v12.56h1.54V.22h-1.23Z"></path>
                <path class="st0" d="M39.2,8.49C39.2,4.27,37.98.03,34.09.03s-5.12,4.24-5.12,8.46c0,0,0,0,0,0s0,0,0,0c0,4.22,1.22,8.46,5.12,8.46s5.12-4.24,5.12-8.46c0,0,0,0,0,0s0,0,0,0ZM37.67,8.5c0,3.45-.85,6.92-3.58,6.92s-3.58-3.47-3.58-6.92c0,0,0,0,0,0s0,0,0,0c0-3.45.85-6.92,3.58-6.92s3.58,3.47,3.58,6.92c0,0,0,0,0,0s0,0,0,0Z"></path>
                <path class="st0" d="M104.6,8.5c0-4.22-1.22-8.46-5.12-8.46s-5.12,4.24-5.12,8.46c0,0,0,0,0,0s0,0,0,0c0,4.22,1.22,8.46,5.12,8.46s5.12-4.24,5.12-8.46c0,0,0,0,0,0s0,0,0,0ZM103.06,8.51c0,3.45-.85,6.92-3.58,6.92s-3.58-3.47-3.58-6.92c0,0,0,0,0,0s0,0,0,0c0-3.45.85-6.92,3.58-6.92s3.58,3.47,3.58,6.92c0,0,0,0,0,0s0,0,0,0Z"></path>
            </svg>